# xmcd CD database file generated by OrangeCD 5.2
#
# Track frame offsets:
#	150
#	12944
#	31429
#	48439
#	67485
#	86983
#	107424
#	134933
#	153201
#	168542
#	181528
#	200493
#	219772
#	240148
#	258504
#	273167
#
# Disc length: 3692 seconds
#
# Revision: 5
# Processed by: cddbd v1.5.1PL0 Copyright (c) Steve Scherf et al.
# Submitted via: OrangeCD 5.2
#
DISCID=dc0e6a10
DTITLE=Michal Tucny - Snidane v trave
DYEAR=1900
DGENRE=Country
TTITLE0=Snidane v trave
TTITLE1=Bajecna zenska
TTITLE2=Tam u nebeskych bran
TTITLE3=Vsichni jsou uz v Mexiku
TTITLE4=Karolina
TTITLE5=Modra z dzin
TTITLE6=Jak chcete zit bez koni
TTITLE7=Poveste ho vejs
TTITLE8=Chtel bych byt medvidkem
TTITLE9=Tak uz nefnukej
TTITLE10=Staryho psa novym kouskum nenaucis
TTITLE11=Medicinman
TTITLE12=Kosmickej vandr
TTITLE13=Dam sbohem rekam
TTITLE14=Spim v obili
TTITLE15=Posledni kovboj
EXTD=
EXTT0=
EXTT1=
EXTT2=
EXTT3=
EXTT4=
EXTT5=
EXTT6=
EXTT7=
EXTT8=
EXTT9=
EXTT10=
EXTT11=
EXTT12=
EXTT13=
EXTT14=
EXTT15=
PLAYORDER=
